<svg xmlns="http://www.w3.org/2000/svg" viewBox="0 0 128 128" fill="none">
  <rect width="128" height="128" rx="28" fill="#f6f4ef"/>
  <!-- Stripe-clean: bull outline + rising bars behind -->
  <rect x="24" y="72" width="12" height="28" rx="3" fill="#2d5a4f" opacity="0.35"/>
  <rect x="40" y="60" width="12" height="40" rx="3" fill="#2d5a4f" opacity="0.5"/>
  <rect x="56" y="48" width="12" height="52" rx="3" fill="#1a3c34" opacity="0.4"/>
  <!-- Bull head front -->
  <path d="M64 32c-12 0-20 8-22 18-3 1-5 5-5 9 0 8 6 14 14 16 2 6 6 10 13 10s11-4 13-10c8-2 14-8 14-16 0-4-2-8-5-9-2-10-10-18-22-18z" fill="#1a3c34"/>
  <path d="M48 42c-3-3-7-2-8 2 2-1 5 0 6 2" fill="#e8622a"/>
  <path d="M80 42c3-3 7-2 8 2-2-1-5 0-6 2" fill="#e8622a"/>
  <circle cx="57" cy="52" r="2" fill="#f6f4ef"/>
  <circle cx="71" cy="52" r="2" fill="#f6f4ef"/>
  <path d="M58 62 Q64 68 70 62" stroke="#e8622a" stroke-width="2.5" stroke-linecap="round" fill="none"/>
</svg>
