<svg xmlns="http://www.w3.org/2000/svg" viewBox="0 0 128 128" fill="none">
  <rect width="128" height="128" rx="28" fill="#f6f4ef"/>
  <rect x="0" y="0" width="128" height="24" fill="#e8622a" opacity="0.08"/>
  <path d="M24 80C34 72 44 70 54 72C60 66 66 60 72 56C78 52 86 50 94 54C98 60 96 68 88 74C78 80 64 84 48 84C36 84 28 82 24 80Z" fill="#1a3c34"/>
  <path d="M72 56C68 50 62 48 56 52C50 56 46 62 44 68C42 74 46 78 52 78C58 78 62 74 64 68C66 62 70 58 72 56Z" fill="#1a3c34"/>
  <path d="M56 52C48 42 36 36 24 38C32 34 42 36 50 42C54 46 56 50 56 52Z" fill="#e8622a"/>
  <path d="M62 50C66 38 76 30 90 26C82 30 72 36 66 44C62 48 62 50 62 50Z" fill="#e8622a"/>
  <circle cx="54" cy="60" r="2" fill="#f6f4ef"/>
  <path d="M92 54C100 44 104 32 102 22" stroke="#1a3c34" stroke-width="3" stroke-linecap="round"/>
</svg>
